<svg width="1024" height="1024" viewBox="0 0 1024 1024" fill="none" xmlns="http://www.w3.org/2000/svg">
<rect width="1024" height="1024" fill="#059669"/>
<rect x="0.5" y="0.5" width="1023" height="1023" stroke="black" stroke-opacity="0.1"/>
<rect x="138" y="390" width="748" height="495" rx="40" fill="white"/>
<path d="M523 799.562C523 808.639 529.919 816 538.45 816H569.35C577.881 816 584.8 808.639 584.8 799.562V635.188H523V799.562ZM802.626 700.938C811.249 692.005 816.55 681.757 816.55 670.677C816.55 643.524 796.373 622.5 774.101 607.547C753.852 593.95 735.172 577.872 720.045 558.121L716.125 553L712.205 558.121C697.078 577.872 678.403 593.955 658.149 607.547C635.877 622.5 615.7 643.524 615.7 670.677C615.7 681.757 621.001 692.005 629.624 700.938H802.626ZM816.55 717.375H615.7C607.169 717.375 600.25 724.736 600.25 733.812V799.562C600.25 808.639 607.169 816 615.7 816H631.15V783.125C631.15 774.048 638.069 766.688 646.6 766.688C655.131 766.688 662.05 774.048 662.05 783.125V816H692.95V779.016C692.95 754.359 716.125 742.031 716.125 742.031C716.125 742.031 739.3 754.359 739.3 779.016V816H770.2V783.125C770.2 774.048 777.119 766.688 785.65 766.688C794.181 766.688 801.1 774.048 801.1 783.125V816H816.55C825.081 816 832 808.639 832 799.562V733.812C832 724.736 825.081 717.375 816.55 717.375ZM553.9 553C553.9 553 523 569.438 523 602.312V618.75H584.8V602.312C584.8 569.438 553.9 553 553.9 553Z" fill="#059669"/>
<path d="M526 799.562C526 808.639 532.605 816 540.75 816H570.25C578.395 816 585 808.639 585 799.562V635.188H526V799.562ZM792.957 700.938C801.189 692.005 806.25 681.757 806.25 670.677C806.25 643.524 786.987 622.5 765.724 607.547C746.393 593.95 728.559 577.872 714.118 558.121L710.375 553L706.632 558.121C692.191 577.872 674.362 593.955 655.026 607.547C633.763 622.5 614.5 643.524 614.5 670.677C614.5 681.757 619.561 692.005 627.793 700.938H792.957ZM806.25 717.375H614.5C606.355 717.375 599.75 724.736 599.75 733.812V799.562C599.75 808.639 606.355 816 614.5 816H629.25V783.125C629.25 774.048 635.855 766.688 644 766.688C652.145 766.688 658.75 774.048 658.75 783.125V816H688.25V779.016C688.25 754.359 710.375 742.031 710.375 742.031C710.375 742.031 732.5 754.359 732.5 779.016V816H762V783.125C762 774.048 768.605 766.688 776.75 766.688C784.895 766.688 791.5 774.048 791.5 783.125V816H806.25C814.395 816 821 808.639 821 799.562V733.812C821 724.736 814.395 717.375 806.25 717.375ZM555.5 553C555.5 553 526 569.438 526 602.312V618.75H585V602.312C585 569.438 555.5 553 555.5 553Z" fill="white"/>
<path d="M531 800.125C531 808.891 537.381 816 545.25 816H573.75C581.619 816 588 808.891 588 800.125V641.375H531V800.125ZM788.907 704.875C796.86 696.248 801.75 686.351 801.75 675.65C801.75 649.427 783.14 629.121 762.598 614.68C743.922 601.549 726.693 586.021 712.741 566.946L709.125 562L705.509 566.946C691.557 586.021 674.333 601.554 655.652 614.68C635.11 629.121 616.5 649.427 616.5 675.65C616.5 686.351 621.39 696.248 629.343 704.875H788.907ZM801.75 720.75H616.5C608.631 720.75 602.25 727.859 602.25 736.625V800.125C602.25 808.891 608.631 816 616.5 816H630.75V784.25C630.75 775.484 637.131 768.375 645 768.375C652.869 768.375 659.25 775.484 659.25 784.25V816H687.75V780.281C687.75 756.469 709.125 744.562 709.125 744.562C709.125 744.562 730.5 756.469 730.5 780.281V816H759V784.25C759 775.484 765.381 768.375 773.25 768.375C781.119 768.375 787.5 775.484 787.5 784.25V816H801.75C809.619 816 816 808.891 816 800.125V736.625C816 727.859 809.619 720.75 801.75 720.75ZM559.5 562C559.5 562 531 577.875 531 609.625V625.5H588V609.625C588 577.875 559.5 562 559.5 562Z" fill="#059669"/>
<circle cx="254.5" cy="624.5" r="71.5" fill="#059669"/>
<circle cx="254.5" cy="767.5" r="48.5" fill="#059669"/>
<ellipse cx="261" cy="394.5" rx="50" ry="32.5" fill="white"/>
<rect x="183" y="460" width="243" height="50" fill="#059669"/>
<rect x="452" y="460" width="383" height="50" fill="#059669"/>
<path d="M751 151L255 370L279 395L757 162.5L751 151Z" fill="white"/>
<circle cx="757" cy="154" r="16" fill="white"/>
</svg>
