<svg width="748" height="747" viewBox="0 0 748 747" fill="none" xmlns="http://www.w3.org/2000/svg">
<rect y="252" width="748" height="495" rx="40" fill="#059669"/>
<path d="M385 661.562C385 670.639 391.919 678 400.45 678H431.35C439.881 678 446.8 670.639 446.8 661.562V497.188H385V661.562ZM664.626 562.938C673.249 554.005 678.55 543.757 678.55 532.677C678.55 505.524 658.373 484.5 636.101 469.547C615.852 455.95 597.172 439.872 582.045 420.121L578.125 415L574.205 420.121C559.078 439.872 540.403 455.955 520.149 469.547C497.877 484.5 477.7 505.524 477.7 532.677C477.7 543.757 483.001 554.005 491.624 562.938H664.626ZM678.55 579.375H477.7C469.169 579.375 462.25 586.736 462.25 595.812V661.562C462.25 670.639 469.169 678 477.7 678H493.15V645.125C493.15 636.048 500.069 628.688 508.6 628.688C517.131 628.688 524.05 636.048 524.05 645.125V678H554.95V641.016C554.95 616.359 578.125 604.031 578.125 604.031C578.125 604.031 601.3 616.359 601.3 641.016V678H632.2V645.125C632.2 636.048 639.119 628.688 647.65 628.688C656.181 628.688 663.1 636.048 663.1 645.125V678H678.55C687.081 678 694 670.639 694 661.562V595.812C694 586.736 687.081 579.375 678.55 579.375ZM415.9 415C415.9 415 385 431.438 385 464.312V480.75H446.8V464.312C446.8 431.438 415.9 415 415.9 415Z" fill="white"/>
<path d="M388 661.562C388 670.639 394.605 678 402.75 678H432.25C440.395 678 447 670.639 447 661.562V497.188H388V661.562ZM654.957 562.938C663.189 554.005 668.25 543.757 668.25 532.677C668.25 505.524 648.987 484.5 627.724 469.547C608.393 455.95 590.559 439.872 576.118 420.121L572.375 415L568.632 420.121C554.191 439.872 536.362 455.955 517.026 469.547C495.763 484.5 476.5 505.524 476.5 532.677C476.5 543.757 481.561 554.005 489.793 562.938H654.957ZM668.25 579.375H476.5C468.355 579.375 461.75 586.736 461.75 595.812V661.562C461.75 670.639 468.355 678 476.5 678H491.25V645.125C491.25 636.048 497.855 628.688 506 628.688C514.145 628.688 520.75 636.048 520.75 645.125V678H550.25V641.016C550.25 616.359 572.375 604.031 572.375 604.031C572.375 604.031 594.5 616.359 594.5 641.016V678H624V645.125C624 636.048 630.605 628.688 638.75 628.688C646.895 628.688 653.5 636.048 653.5 645.125V678H668.25C676.395 678 683 670.639 683 661.562V595.812C683 586.736 676.395 579.375 668.25 579.375ZM417.5 415C417.5 415 388 431.438 388 464.312V480.75H447V464.312C447 431.438 417.5 415 417.5 415Z" fill="#059669"/>
<path d="M393 662.125C393 670.891 399.381 678 407.25 678H435.75C443.619 678 450 670.891 450 662.125V503.375H393V662.125ZM650.907 566.875C658.86 558.248 663.75 548.351 663.75 537.65C663.75 511.427 645.14 491.121 624.598 476.68C605.922 463.549 588.693 448.021 574.741 428.946L571.125 424L567.509 428.946C553.557 448.021 536.333 463.554 517.652 476.68C497.11 491.121 478.5 511.427 478.5 537.65C478.5 548.351 483.39 558.248 491.343 566.875H650.907ZM663.75 582.75H478.5C470.631 582.75 464.25 589.859 464.25 598.625V662.125C464.25 670.891 470.631 678 478.5 678H492.75V646.25C492.75 637.484 499.131 630.375 507 630.375C514.869 630.375 521.25 637.484 521.25 646.25V678H549.75V642.281C549.75 618.469 571.125 606.562 571.125 606.562C571.125 606.562 592.5 618.469 592.5 642.281V678H621V646.25C621 637.484 627.381 630.375 635.25 630.375C643.119 630.375 649.5 637.484 649.5 646.25V678H663.75C671.619 678 678 670.891 678 662.125V598.625C678 589.859 671.619 582.75 663.75 582.75ZM421.5 424C421.5 424 393 439.875 393 471.625V487.5H450V471.625C450 439.875 421.5 424 421.5 424Z" fill="white"/>
<circle cx="116.5" cy="486.5" r="71.5" fill="white"/>
<circle cx="116.5" cy="629.5" r="48.5" fill="white"/>
<ellipse cx="123" cy="256.5" rx="50" ry="32.5" fill="#059669"/>
<rect x="45" y="322" width="243" height="50" fill="white"/>
<rect x="314" y="322" width="383" height="50" fill="white"/>
<path d="M613 13L117 232L141 257L619 24.5L613 13Z" fill="#059669"/>
<circle cx="619" cy="16" r="16" fill="#059669"/>
</svg>
